<svg width="100" height="100" viewBox="0 0 100 100" fill="none" xmlns="http://www.w3.org/2000/svg">
  <rect width="100" height="100" rx="20" fill="url(#mkhedmin-gradient)"/>
  <defs>
    <linearGradient id="mkhedmin-gradient" x1="0%" y1="0%" x2="100%" y2="100%">
      <stop offset="0%" style="stop-color:#0ea5e9;stop-opacity:1" />
      <stop offset="100%" style="stop-color:#0369a1;stop-opacity:1" />
    </linearGradient>
  </defs>
  
  <!-- Moroccan Star (Khatam) -->
  <polygon points="50,15 52.5,22.5 60,20 57.5,27.5 65,30 57.5,32.5 60,40 52.5,37.5 50,45 47.5,37.5 40,40 42.5,32.5 35,30 42.5,27.5 40,20 47.5,22.5" fill="white" opacity="0.9"/>
  
  <!-- Freelancer Icons -->
  <circle cx="35" cy="60" r="8" fill="white"/>
  <path d="M35 68 Q35 75 42 75 Q49 75 49 68" fill="white"/>
  
  <circle cx="65" cy="60" r="8" fill="white"/>
  <path d="M65 68 Q65 75 72 75 Q79 75 79 68" fill="white"/>
  
  <!-- Connection Lines -->
  <path d="M43 65 L57 65" stroke="white" stroke-width="2" stroke-dasharray="3,2"/>
  
  <!-- Morocco Flag Colors Accent -->
  <rect x="15" y="85" width="20" height="4" fill="#C1272D" rx="2"/>
  <rect x="40" y="85" width="20" height="4" fill="#006233" rx="2"/>
  <rect x="65" y="85" width="20" height="4" fill="#C1272D" rx="2"/>
  
  <!-- Text */
  <text x="50" y="95" text-anchor="middle" fill="white" font-family="Arial, sans-serif" font-size="8" font-weight="bold">Mkhedmin</text>
</svg>