<svg width="100" height="100" viewBox="0 0 100 100" fill="none" xmlns="http://www.w3.org/2000/svg">
  <rect width="100" height="100" rx="20" fill="url(#reservation-gradient)"/>
  <defs>
    <linearGradient id="reservation-gradient" x1="0%" y1="0%" x2="100%" y2="100%">
      <stop offset="0%" style="stop-color:#8B5CF6;stop-opacity:1" />
      <stop offset="100%" style="stop-color:#6D28D9;stop-opacity:1" />
    </linearGradient>
  </defs>
  
  <!-- Calendar Base -->
  <rect x="25" y="25" width="50" height="50" rx="6" fill="white"/>
  
  <!-- Calendar Header -->
  <rect x="25" y="25" width="50" height="12" rx="6" fill="#8B5CF6"/>
  
  <!-- Calendar Binding -->
  <rect x="35" y="20" width="4" height="10" rx="2" fill="#6D28D9"/>
  <rect x="45" y="20" width="4" height="10" rx="2" fill="#6D28D9"/>
  <rect x="55" y="20" width="4" height="10" rx="2" fill="#6D28D9"/>
  
  <!-- Calendar Days Grid -->
  <rect x="30" y="42" width="4" height="4" rx="1" fill="#8B5CF6"/>
  <rect x="37" y="42" width="4" height="4" rx="1" fill="#E5E7EB"/>
  <rect x="44" y="42" width="4" height="4" rx="1" fill="#E5E7EB"/>
  <rect x="51" y="42" width="4" height="4" rx="1" fill="#E5E7EB"/>
  <rect x="58" y="42" width="4" height="4" rx="1" fill="#E5E7EB"/>
  <rect x="65" y="42" width="4" height="4" rx="1" fill="#E5E7EB"/>
  
  <rect x="30" y="49" width="4" height="4" rx="1" fill="#E5E7EB"/>
  <rect x="37" y="49" width="4" height="4" rx="1" fill="#F59E0B"/>
  <rect x="44" y="49" width="4" height="4" rx="1" fill="#E5E7EB"/>
  <rect x="51" y="49" width="4" height="4" rx="1" fill="#10B981"/>
  <rect x="58" y="49" width="4" height="4" rx="1" fill="#E5E7EB"/>
  <rect x="65" y="49" width="4" height="4" rx="1" fill="#EF4444"/>
  
  <rect x="30" y="56" width="4" height="4" rx="1" fill="#E5E7EB"/>
  <rect x="37" y="56" width="4" height="4" rx="1" fill="#E5E7EB"/>
  <rect x="44" y="56" width="4" height="4" rx="1" fill="#8B5CF6"/>
  <rect x="51" y="56" width="4" height="4" rx="1" fill="#E5E7EB"/>
  <rect x="58" y="56" width="4" height="4" rx="1" fill="#E5E7EB"/>
  <rect x="65" y="56" width="4" height="4" rx="1" fill="#E5E7EB"/>
  
  <rect x="30" y="63" width="4" height="4" rx="1" fill="#E5E7EB"/>
  <rect x="37" y="63" width="4" height="4" rx="1" fill="#E5E7EB"/>
  <rect x="44" y="63" width="4" height="4" rx="1" fill="#E5E7EB"/>
  <rect x="51" y="63" width="4" height="4" rx="1" fill="#10B981"/>
  <rect x="58" y="63" width="4" height="4" rx="1" fill="#E5E7EB"/>
  <rect x="65" y="63" width="4" height="4" rx="1" fill="#E5E7EB"/>
  
  <!-- Reservation Icon -->
  <circle cx="85" cy="15" r="8" fill="white"/>
  <path d="M80 15 L83 18 L90 11" stroke="#8B5CF6" stroke-width="2" fill="none" stroke-linecap="round" stroke-linejoin="round"/>
  
  <!-- Text -->
  <text x="50" y="90" text-anchor="middle" fill="white" font-family="Arial, sans-serif" font-size="8" font-weight="bold">Réservations</text>
</svg>