<svg width="32" height="32" viewBox="0 0 32 32" fill="none" xmlns="http://www.w3.org/2000/svg">
  <rect width="32" height="32" rx="8" fill="url(#gradient)"/>
  <defs>
    <linearGradient id="gradient" x1="0%" y1="0%" x2="100%" y2="100%">
      <stop offset="0%" style="stop-color:#3B82F6;stop-opacity:1" />
      <stop offset="100%" style="stop-color:#1E40AF;stop-opacity:1" />
    </linearGradient>
  </defs>
  <!-- S Letter -->
  <path d="M8 10C8 8.89543 8.89543 8 10 8H18C19.1046 8 20 8.89543 20 10V11C20 12.1046 19.1046 13 18 13H12C10.8954 13 10 13.8954 10 15V16C10 17.1046 10.8954 18 12 18H22C23.1046 18 24 18.8954 24 20V21C24 22.1046 23.1046 23 22 23H14C12.8954 23 12 22.1046 12 21V20C12 18.8954 12.8954 18 14 18H20C21.1046 18 22 17.1046 22 16V15C22 13.8954 21.1046 13 20 13H10C8.89543 13 8 12.1046 8 11V10Z" fill="white"/>
  <!-- L Letter -->
  <path d="M8 16V24H16V22H10V16H8Z" fill="white"/>
</svg>